<?xml version="1.0" standalone="no"?>
<!DOCTYPE svg PUBLIC "-//W3C//DTD SVG 20010904//EN"
 "http://www.w3.org/TR/2001/REC-SVG-20010904/DTD/svg10.dtd">
<svg version="1.0" xmlns="http://www.w3.org/2000/svg"
 width="900.000000pt" height="572.000000pt" viewBox="0 0 900.000000 572.000000"
 preserveAspectRatio="xMidYMid meet">

<g transform="translate(0.000000,572.000000) scale(0.100000,-0.100000)"
fill="#000000" stroke="none">
<path d="M7100 4559 c-36 -5 -193 -22 -350 -39 -689 -74 -647 -68 -698 -114
-61 -54 -62 -69 -27 -435 14 -145 25 -286 25 -313 0 -75 23 -113 103 -169 39
-27 77 -49 85 -49 8 0 12 -6 9 -12 -3 -7 -56 -128 -117 -268 -62 -140 -121
-274 -131 -298 l-19 -43 218 147 c119 81 288 196 374 256 l157 108 255 -57
c283 -62 299 -63 367 -6 59 50 59 44 65 625 7 627 14 580 -104 640 -78 40 -94
42 -212 27z m167 -75 l26 -26 -6 -377 c-4 -207 -7 -440 -7 -518 l0 -142 -30
-35 c-17 -19 -43 -37 -58 -40 -16 -3 -135 19 -287 53 l-260 58 -60 -47 c-300
-235 -409 -319 -411 -317 -2 2 37 97 86 212 50 115 87 212 82 216 -4 3 -36 12
-72 19 -87 17 -126 34 -140 60 -6 12 -26 176 -42 365 -30 324 -30 345 -14 369
35 55 38 55 589 116 287 32 535 58 550 59 18 1 37 -8 54 -25z"/>
<path d="M6671 4313 c-79 -40 -114 -88 -119 -163 -6 -76 16 -138 63 -179 25
-22 30 -31 18 -33 -13 -3 -15 -23 -14 -143 2 -146 5 -155 49 -155 21 0 22 3
22 87 l0 87 61 -97 c58 -92 63 -97 95 -97 33 0 34 1 34 43 0 23 3 93 7 155 l6
112 -33 0 -33 0 33 23 c46 30 83 105 88 178 8 113 -62 198 -171 206 -42 4 -62
-1 -106 -24z m153 -114 c25 -28 28 -37 23 -78 -9 -77 -85 -124 -148 -91 -41
22 -62 106 -38 151 5 11 25 29 42 40 42 26 84 18 121 -22z m-4 -291 c0 -13 -3
-53 -6 -90 l-7 -67 -53 82 -53 82 52 6 c29 3 55 6 60 7 4 1 7 -8 7 -20z"/>
<path d="M6998 4333 c-10 -2 -18 -10 -18 -17 0 -8 -3 -28 -6 -45 -6 -31 -6
-31 36 -31 l43 0 -6 -62 c-4 -35 -9 -107 -13 -160 l-7 -98 -48 0 -49 0 0 -78
c0 -44 -3 -113 -6 -155 l-7 -75 59 -7 c32 -4 67 -9 77 -11 14 -5 17 1 17 35
l0 41 -41 0 c-38 0 -40 1 -37 28 3 25 6 27 39 24 31 -3 37 0 43 20 10 40 7 45
-34 52 -35 5 -40 10 -40 32 0 24 3 26 43 22 41 -3 42 -2 45 30 2 20 9 32 18
32 8 0 14 8 14 17 0 26 20 244 26 281 4 29 8 32 40 32 37 0 39 3 49 63 l6 37
-113 -1 c-62 -1 -121 -3 -130 -6z"/>
<path d="M6265 4308 c-108 -38 -154 -149 -106 -253 30 -66 102 -115 167 -115
17 0 24 -4 22 -12 -3 -7 -13 -37 -23 -67 l-18 -54 -28 63 c-16 34 -29 66 -29
70 0 8 -69 24 -76 17 -4 -3 -23 -250 -20 -253 0 -1 15 -5 32 -8 l32 -7 7 71 7
71 36 -76 c24 -50 41 -75 50 -73 9 2 25 31 36 65 12 34 24 64 27 67 3 3 11
-28 18 -68 12 -72 13 -74 44 -79 18 -2 33 -3 35 -2 2 2 -9 64 -24 140 l-26
137 31 29 c39 35 61 85 61 139 l0 40 -95 0 c-103 0 -104 -1 -89 -57 5 -18 14
-23 40 -23 40 0 46 -21 12 -44 -28 -20 -51 -20 -88 -1 -79 41 -79 172 0 205
35 15 84 0 101 -31 9 -18 12 -18 47 -3 52 21 56 28 37 57 -36 55 -143 82 -220
55z"/>
<path d="M6503 3804 c3 -74 7 -137 9 -139 1 -1 18 -6 37 -10 l34 -7 -6 62 c-4
35 -7 101 -7 146 l0 84 -36 0 -37 0 6 -136z"/>
<path d="M7140 3868 c0 -24 -3 -73 -7 -110 l-6 -68 35 0 35 0 9 110 9 110 -37
0 c-38 0 -38 0 -38 -42z"/>
<path d="M7135 3666 c-32 -23 -16 -96 21 -96 21 0 47 46 39 70 -9 29 -38 42
-60 26z"/>
<path d="M4377 4019 c-166 -168 -276 -306 -323 -404 -19 -38 -34 -74 -34 -80
0 -5 36 25 80 67 145 141 320 254 455 294 33 10 61 19 63 20 4 2 -80 228 -90
239 -5 6 -64 -47 -151 -136z"/>
<path d="M5195 3864 l-240 -154 -49 97 c-48 98 -48 98 -41 48 18 -138 61 -255
94 -255 17 0 147 47 452 165 l96 37 -26 106 c-15 58 -31 107 -36 108 -6 1
-118 -67 -250 -152z"/>
<path d="M4391 3744 c-120 -43 -216 -148 -271 -294 -26 -70 15 -59 -371 -95
-240 -22 -307 -33 -715 -115 -581 -118 -1381 -279 -1416 -287 -23 -4 -26 -10
-23 -32 3 -14 19 -132 35 -261 17 -129 33 -241 35 -249 3 -7 17 -111 31 -230
39 -335 41 -349 74 -631 17 -145 32 -265 33 -266 1 0 355 -189 787 -419 432
-230 817 -435 855 -456 l70 -38 275 158 275 158 54 -49 c58 -53 113 -84 201
-114 80 -28 248 -25 355 4 163 46 365 168 423 255 20 31 27 55 30 106 l4 67
131 80 c72 43 144 90 159 102 51 43 29 125 -37 138 -25 4 -55 -10 -190 -94
-158 -98 -160 -99 -189 -85 -38 20 -135 19 -174 -1 -17 -9 -60 -38 -96 -65
-59 -45 -128 -78 -198 -95 -16 -3 -28 -3 -28 1 1 5 76 51 168 103 92 52 363
208 603 345 l436 250 12 135 c6 74 14 158 16 185 8 81 33 366 50 560 8 99 17
194 19 212 4 28 2 32 -27 36 -18 3 -137 22 -264 43 -128 20 -233 40 -233 44 0
3 15 20 33 37 30 28 52 34 307 88 151 32 277 60 279 62 4 3 -47 486 -54 508
-2 7 -59 5 -171 -7 -93 -9 -190 -17 -215 -17 -43 -1 -48 2 -59 29 -7 17 -14
30 -16 30 -1 0 -58 -20 -126 -45 -105 -39 -142 -48 -251 -59 l-129 -12 -30 59
c-42 84 -118 161 -196 199 -79 39 -198 49 -271 22z m235 -79 c209 -94 288
-398 168 -652 -39 -81 -130 -174 -206 -209 -123 -56 -266 -31 -346 61 -121
137 -136 403 -35 614 89 186 255 260 419 186z m759 -215 c9 -28 14 -56 12 -63
-3 -6 -6 -1 -6 12 -1 12 -16 38 -35 57 -33 33 -32 36 6 43 3 0 14 -22 23 -49z
m-131 -19 c-12 -24 -15 -47 -10 -84 6 -59 31 -98 69 -111 39 -14 73 21 85 88
10 50 10 50 11 -34 2 -181 -72 -334 -198 -408 -40 -23 -57 -27 -126 -27 -89 0
-128 16 -200 78 -31 27 -37 37 -28 48 28 34 55 147 60 252 l6 107 49 18 c28 9
105 37 171 63 67 25 123 44 125 44 1 -1 -5 -16 -14 -34z m499 -53 c18 -132 29
-239 25 -244 -5 -4 -313 -74 -328 -74 -5 0 -1 26 8 58 11 37 16 96 16 169 l0
112 76 6 c41 3 82 8 90 9 8 2 36 4 61 5 l47 1 5 -42z m-1664 -378 c18 -61 55
-132 91 -174 l31 -34 -31 -7 c-48 -11 -116 48 -165 144 -22 44 -47 122 -48
148 0 7 -4 10 -8 8 -8 -5 12 -101 37 -178 9 -26 31 -70 49 -97 19 -28 30 -50
26 -50 -4 0 -110 -23 -236 -50 -127 -28 -237 -49 -245 -48 -12 3 -19 53 -36
273 -12 149 -19 273 -17 278 2 4 25 7 51 8 26 0 144 10 262 22 l215 22 6 -110
c3 -60 11 -130 18 -155z m-639 193 c0 -5 9 -129 21 -276 12 -147 20 -270 18
-271 -3 -3 -328 -25 -609 -42 -47 -2 -106 -7 -132 -10 -46 -4 -46 -4 -58 32
-16 47 -73 110 -124 136 -52 27 -138 22 -183 -10 -36 -26 -83 -113 -83 -154 0
-15 -1 -28 -2 -29 -8 -3 -523 -35 -526 -33 -4 3 -41 272 -42 302 0 14 6 22 18
22 9 0 391 76 847 169 457 93 836 170 843 170 6 1 12 -2 12 -6z m464 -735 c32
-10 82 -34 110 -52 64 -42 162 -144 211 -220 20 -32 39 -55 41 -53 9 9 -18 92
-49 150 -19 36 -58 84 -101 124 l-71 66 62 -33 c120 -63 211 -187 255 -349 18
-64 22 -109 24 -281 2 -215 2 -224 -47 -570 -23 -157 -29 -232 -24 -280 15
-155 90 -223 227 -207 46 6 166 52 157 61 -2 2 -30 -1 -61 -7 -71 -13 -151 3
-191 37 -15 13 -27 25 -27 27 0 2 23 2 50 1 94 -7 218 46 338 145 48 39 133
44 182 11 67 -45 90 -140 50 -205 -41 -68 -201 -171 -339 -218 -113 -38 -194
-48 -301 -34 -152 19 -279 109 -348 248 l-37 75 1 131 c0 81 9 184 23 275 50
328 59 562 26 708 -29 129 -96 187 -247 217 -90 17 -179 24 -172 13 3 -4 12
-8 21 -8 25 0 133 -32 133 -39 0 -3 -23 -14 -51 -24 -31 -11 -70 -37 -101 -67
-30 -29 -70 -55 -95 -64 -44 -15 -48 -15 -208 31 l-164 47 40 47 c38 45 172
164 234 206 49 34 130 73 202 99 78 28 146 26 247 -8z m-1894 -626 c36 -17
366 -179 733 -360 l667 -330 0 -251 c0 -138 -1 -251 -2 -251 -7 0 -1444 732
-1450 738 -5 6 -48 436 -48 486 0 13 4 14 18 8 9 -6 46 -23 82 -40z m3385
-632 c0 -21 -21 -38 -140 -112 -77 -48 -143 -88 -146 -88 -3 0 -15 13 -26 28
l-21 28 142 87 c151 93 191 105 191 57z"/>
<path d="M4608 3413 c-28 -33 -38 -61 -38 -113 0 -60 18 -106 54 -139 22 -21
31 -23 54 -15 74 25 83 191 15 266 -21 23 -65 23 -85 1z"/>
<path d="M4709 2953 c-13 -16 -12 -17 4 -4 16 13 21 21 13 21 -2 0 -10 -8 -17
-17z"/>
<path d="M4305 2890 c10 -11 20 -20 23 -20 3 0 -3 9 -13 20 -10 11 -20 20 -23
20 -3 0 3 -9 13 -20z"/>
<path d="M5166 2898 c3 -5 10 -6 15 -3 13 9 11 12 -6 12 -8 0 -12 -4 -9 -9z"/>
<path d="M1980 1785 c0 -8 21 -26 48 -39 26 -14 43 -25 39 -26 -4 0 -21 7 -37
15 -17 9 -30 13 -30 10 0 -2 36 -23 80 -45 44 -22 80 -36 80 -32 0 5 -15 16
-32 26 -30 15 -21 15 17 0 16 -6 20 4 7 21 -6 9 -156 85 -167 85 -3 0 -5 -7
-5 -15z"/>
<path d="M2190 1713 c0 -10 7 -101 15 -203 8 -102 15 -197 15 -212 0 -26 16
-36 293 -174 160 -80 342 -172 402 -204 61 -31 195 -101 299 -155 l189 -97 -6
178 c-4 99 -7 205 -7 236 l0 58 -593 295 c-327 162 -597 295 -600 295 -4 0 -7
-8 -7 -17z m150 -118 c26 -28 17 -34 -12 -8 -10 9 -18 12 -18 6 0 -5 11 -19
25 -31 28 -24 34 -62 10 -62 -18 0 -55 35 -55 53 0 6 9 1 20 -13 10 -14 22
-21 26 -17 4 4 -5 20 -21 37 -17 17 -25 35 -22 44 9 22 20 20 47 -9z m50 -35
c0 -11 7 -20 15 -20 17 0 35 -30 35 -59 0 -23 -17 -27 -41 -8 -17 13 -31 107
-17 107 5 0 8 -9 8 -20z m221 -71 l24 -20 -25 6 -25 6 23 -17 c23 -17 31 -64
10 -64 -19 1 -48 25 -48 41 0 10 3 10 12 1 22 -22 32 -12 10 11 -22 23 -30 57
-13 57 5 0 19 -9 32 -21z m-251 -39 c0 -5 -9 -6 -20 -3 -11 3 -20 9 -20 13 0
5 9 6 20 3 11 -3 20 -9 20 -13z m27 -22 c-3 -8 -6 -5 -6 6 -1 11 2 17 5 13 3
-3 4 -12 1 -19z m277 -31 c-9 -24 -24 -11 -24 21 0 24 2 25 15 11 9 -9 13 -23
9 -32z m-334 18 c0 -8 -2 -15 -4 -15 -2 0 -6 7 -10 15 -3 8 -1 15 4 15 6 0 10
-7 10 -15z m207 -7 c-3 -8 -6 -5 -6 6 -1 11 2 17 5 13 3 -3 4 -12 1 -19z m153
-15 c0 -19 -3 -24 -10 -17 -6 6 -8 18 -4 27 9 24 14 21 14 -10z m-310 -2 c0
-5 -9 -7 -20 -4 -11 3 -20 7 -20 9 0 2 9 4 20 4 11 0 20 -4 20 -9z m346 -16
c0 -30 -20 -28 -24 3 -2 14 2 22 10 22 8 0 14 -11 14 -25z m69 15 c3 -5 1 -10
-4 -10 -6 0 -11 5 -11 10 0 6 2 10 4 10 3 0 8 -4 11 -10z m-468 -25 c0 -8 -4
-12 -9 -9 -5 3 -6 10 -3 15 9 13 12 11 12 -6z m100 -7 c-3 -8 -6 -5 -6 6 -1
11 2 17 5 13 3 -3 4 -12 1 -19z m339 6 c-3 -8 -2 -13 3 -10 5 3 11 -2 14 -13
4 -15 1 -16 -18 -7 -22 10 -24 46 -3 46 6 0 7 -7 4 -16z m-406 -20 c0 -8 -4
-12 -10 -9 -5 3 -10 10 -10 16 0 5 5 9 10 9 6 0 10 -7 10 -16z m250 6 c8 -5
11 -10 5 -10 -5 0 -17 5 -25 10 -8 5 -10 10 -5 10 6 0 17 -5 25 -10z m216 -3
c21 8 17 -10 -6 -25 -18 -11 -20 -10 -19 15 0 16 3 23 5 16 3 -7 12 -9 20 -6z
m-439 -19 c-3 -8 -6 -5 -6 6 -1 11 2 17 5 13 3 -3 4 -12 1 -19z m20 -10 c-3
-8 -6 -5 -6 6 -1 11 2 17 5 13 3 -3 4 -12 1 -19z m273 -9 c0 -5 -11 -3 -25 3
-14 6 -25 15 -25 19 0 5 11 3 25 -3 14 -6 25 -15 25 -19z m194 -11 c1 -17 -3
-24 -11 -21 -16 6 -17 56 -1 51 6 -2 12 -16 12 -30z m91 20 c14 -6 26 -16 27
-22 0 -6 2 -15 3 -21 2 -5 3 -17 4 -25 2 -10 6 -7 11 8 5 12 18 22 28 22 27 0
72 -52 72 -83 0 -37 -40 -37 -72 1 -12 15 -31 26 -40 24 -35 -7 -56 16 -60 63
-2 25 -2 45 -1 45 1 0 14 -5 28 -12z m-528 -20 c-3 -8 -6 -5 -6 6 -1 11 2 17
5 13 3 -3 4 -12 1 -19z m188 4 c-3 -3 -11 0 -18 7 -9 10 -8 11 6 5 10 -3 15
-9 12 -12z m215 -3 c0 -6 -4 -7 -10 -4 -5 3 -10 11 -10 16 0 6 5 7 10 4 6 -3
10 -11 10 -16z m81 -22 c4 -15 3 -27 -2 -27 -5 0 -9 5 -9 11 0 5 -4 7 -10 4
-6 -4 -10 5 -10 20 0 34 21 28 31 -8z m-196 13 c3 -6 -1 -7 -9 -4 -18 7 -21
14 -7 14 6 0 13 -4 16 -10z m-385 -31 c0 -5 -11 -3 -25 3 -14 6 -25 15 -25 19
0 5 11 3 25 -3 14 -6 25 -15 25 -19z m344 22 c4 -5 -3 -7 -14 -4 -23 6 -26 13
-6 13 8 0 17 -4 20 -9z m81 -11 c3 -5 2 -10 -4 -10 -5 0 -13 5 -16 10 -3 6 -2
10 4 10 5 0 13 -4 16 -10z m-15 -20 c58 -29 58 -42 0 -14 -27 13 -50 26 -50
29 0 9 9 6 50 -15z m-370 0 c8 -5 11 -12 7 -16 -4 -4 -15 0 -24 9 -18 18 -8
23 17 7z m221 -18 c0 -11 3 -12 6 -4 7 19 21 14 28 -9 6 -17 9 -18 16 -8 11
19 19 7 12 -19 -7 -28 -23 -28 -30 -1 -4 16 -8 17 -14 7 -11 -17 -25 -2 -35
36 -5 21 -4 27 5 22 6 -4 11 -15 12 -24z m209 18 c8 -5 12 -11 9 -14 -3 -3
-14 1 -25 9 -21 16 -8 20 16 5z m-263 -22 c-3 -8 -6 -5 -6 6 -1 11 2 17 5 13
3 -3 4 -12 1 -19z m393 -50 c0 -4 -25 5 -55 20 -30 15 -55 30 -55 34 0 4 25
-4 55 -19 30 -15 55 -31 55 -35z m214 36 c3 -9 10 -12 16 -9 18 11 30 -5 19
-24 -9 -13 -8 -25 5 -49 14 -26 14 -31 1 -26 -8 3 -17 15 -21 26 -3 11 -12 17
-20 14 -8 -3 -21 -3 -29 1 -13 5 -12 8 5 20 20 14 20 17 6 39 -9 13 -16 26
-16 28 0 11 29 -6 34 -20z m-679 -11 c32 -18 10 -26 -24 -8 -17 8 -31 17 -31
19 0 6 36 -1 55 -11z m365 1 c0 -2 -7 -4 -15 -4 -8 0 -15 4 -15 10 0 5 7 7 15
4 8 -4 15 -8 15 -10z m-122 -10 c25 -17 30 -64 7 -64 -32 0 -67 54 -48 73 9
10 16 9 41 -9z m192 -29 c0 -2 -13 1 -30 6 -16 6 -30 15 -30 20 0 5 14 3 30
-6 17 -9 30 -17 30 -20z m-120 -15 c0 -5 7 -7 15 -4 11 5 15 -1 15 -25 0 -20
5 -31 14 -31 9 0 12 7 9 20 -3 11 0 20 6 20 16 0 51 -37 51 -54 0 -8 -4 -17
-10 -21 -11 -7 -110 42 -110 55 0 5 -7 7 -15 4 -12 -5 -15 2 -15 30 0 34 2 36
20 26 11 -6 20 -15 20 -20z m-180 -11 c0 -6 -4 -7 -10 -4 -5 3 -10 11 -10 16
0 6 5 7 10 4 6 -3 10 -11 10 -16z m335 10 c11 -17 -1 -21 -15 -4 -8 9 -8 15
-2 15 6 0 14 -5 17 -11z m-305 -40 c0 -10 -5 -19 -11 -19 -6 0 -9 6 -6 14 4
10 -1 12 -16 9 -22 -5 -22 -5 -2 10 23 18 35 13 35 -14z m35 -5 c23 -2 75 -29
80 -42 6 -17 -3 -34 -16 -26 -5 3 -7 9 -4 13 2 5 -6 9 -19 9 -31 0 -60 21 -64
47 -2 11 1 16 5 10 4 -5 13 -10 18 -11z m285 -51 c0 27 17 20 26 -10 5 -21 8
-24 11 -10 5 19 5 19 27 11 10 -4 16 -18 16 -41 0 -40 -19 -36 -21 5 -2 24 -2
24 -6 5 -6 -29 -23 -30 -30 -2 -4 16 -8 17 -14 7 -12 -19 -28 1 -34 42 l-5 35
14 -30 c10 -20 15 -24 16 -12z m-151 -30 c0 -25 -1 -26 -9 -8 -12 27 -12 35 0
35 6 0 10 -12 9 -27z m59 -30 c-1 -12 -6 -19 -11 -16 -5 3 -6 11 -3 18 2 7 -1
16 -9 19 -10 3 -12 0 -8 -11 4 -11 2 -14 -5 -9 -7 4 -12 15 -12 26 0 16 3 17
25 7 16 -8 24 -19 23 -34z m224 2 c4 -5 8 -18 8 -28 0 -13 -6 -18 -22 -15 -19
2 -24 10 -26 42 -3 37 -2 39 15 25 10 -8 21 -18 25 -24z m48 -15 c8 -5 10 -10
4 -10 -14 0 -13 -32 1 -43 6 -5 1 -7 -10 -5 -14 2 -21 12 -23 36 -3 33 3 38
28 22z"/>
<path d="M2400 1511 c0 -11 5 -23 10 -26 6 -3 10 3 10 14 0 11 -4 23 -10 26
-5 3 -10 -3 -10 -14z"/>
<path d="M2960 1290 c0 -5 5 -10 11 -10 5 0 7 5 4 10 -3 6 -8 10 -11 10 -2 0
-4 -4 -4 -10z"/>
<path d="M2965 1250 c3 -5 8 -10 11 -10 2 0 4 5 4 10 0 6 -5 10 -11 10 -5 0
-7 -4 -4 -10z"/>
<path d="M3040 1230 c0 -22 35 -46 45 -30 9 14 -13 50 -30 50 -8 0 -15 -9 -15
-20z"/>
<path d="M2694 1174 c3 -9 6 -18 6 -20 0 -2 7 -4 15 -4 18 0 19 12 3 28 -17
17 -31 15 -24 -4z"/>
<path d="M2790 1115 c0 -8 4 -15 10 -15 5 0 7 7 4 15 -4 8 -8 15 -10 15 -2 0
-4 -7 -4 -15z"/>
<path d="M2860 1091 c0 -12 5 -21 10 -21 6 0 10 6 10 14 0 8 -4 18 -10 21 -5
3 -10 -3 -10 -14z"/>
<path d="M2670 1089 c0 -5 5 -7 10 -4 6 3 10 8 10 11 0 2 -4 4 -10 4 -5 0 -10
-5 -10 -11z"/>
<path d="M3066 985 c4 -8 10 -15 15 -15 4 0 6 7 3 15 -4 8 -10 15 -15 15 -4 0
-6 -7 -3 -15z"/>
<path d="M2009 1703 c5 -10 9 -22 9 -28 0 -5 6 -11 14 -13 9 -2 8 0 -2 7 -28
20 4 10 65 -20 33 -16 51 -26 40 -23 -11 4 -33 8 -50 9 -16 1 -39 6 -51 13
-11 6 -26 7 -33 3 -8 -6 12 -21 63 -47 41 -21 73 -40 71 -42 -1 -2 -31 11 -65
28 -34 17 -59 26 -55 20 9 -14 148 -81 154 -74 3 3 -1 9 -8 13 -11 7 -11 10 0
14 10 4 8 11 -11 28 -14 12 -18 20 -10 17 11 -4 16 1 18 16 1 18 -12 29 -73
59 -86 42 -89 43 -76 20z"/>
<path d="M2050 1650 c8 -5 20 -10 25 -10 6 0 3 5 -5 10 -8 5 -19 10 -25 10 -5
0 -3 -5 5 -10z"/>
<path d="M2023 1558 c-2 -15 14 -27 74 -54 42 -19 78 -33 80 -30 3 3 -30 23
-73 46 -44 23 -71 39 -61 36 22 -7 22 1 -1 13 -14 8 -18 5 -19 -11z"/>
<path d="M2005 1511 c3 -5 1 -12 -5 -16 -6 -4 -8 -11 -4 -16 3 -5 9 -7 14 -4
5 3 45 -13 90 -35 49 -25 80 -35 80 -28 0 23 -17 41 -31 33 -8 -5 -11 -5 -7 0
4 4 -24 23 -63 41 -76 37 -83 39 -74 25z"/>
<path d="M2010 1434 c0 -21 12 -31 83 -65 79 -38 82 -39 85 -18 5 28 1 30 -90
72 l-78 36 0 -25z"/>
</g>
</svg>
